<svg width="16" height="14" viewBox="0 0 16 14" fill="none" xmlns="http://www.w3.org/2000/svg">
<path d="M13.4274 1.76922H0.802015C0.3596 1.76922 0 2.12837 0 2.57167V12.392C0 12.834 0.3596 13.1941 0.802015 13.1941H13.4274C13.8703 13.1941 14.2299 12.8345 14.2299 12.392V2.57123C14.2286 2.12749 13.8703 1.76922 13.4274 1.76922ZM12.6259 3.3728V10.6016L10.792 8.37576C10.7247 8.29384 10.6051 8.27922 10.5196 8.34211L8.38684 9.89964L4.7244 6.33685C4.68189 6.29522 4.62299 6.27706 4.56586 6.28061C4.50652 6.28592 4.45382 6.31736 4.42016 6.36519L1.60403 10.3948V3.3728H12.6259ZM7.81643 6.37936C7.81643 5.6606 8.40056 5.07603 9.11844 5.07603C9.83719 5.07603 10.4209 5.6606 10.4209 6.37936C10.4209 7.09635 9.83719 7.68181 9.11844 7.68181C8.40056 7.68181 7.81643 7.09591 7.81643 6.37936ZM15.3986 10.2867C15.0665 10.2867 14.7981 10.0174 14.7981 9.68618V1.20103H2.30552C1.97337 1.20103 1.70456 0.932658 1.70456 0.600515C1.70456 0.268815 1.97337 0 2.30552 0H15.3986C15.7307 0 15.9996 0.268815 15.9996 0.600515V9.68662C16 10.0174 15.7307 10.2867 15.3986 10.2867Z" fill="#6C7982"/>
</svg>
